<svg width="50" height="50" viewBox="0 0 50 50" fill="none" xmlns="http://www.w3.org/2000/svg">
<path d="M32.2194 7.34911L42.4562 17.6775L42.3914 32.2194L32.063 42.4562L17.5212 42.3914L7.28436 32.063L7.34913 17.5211L17.6776 7.28433L32.2194 7.34911Z" fill="white" fill-opacity="0.25"/>
<path d="M32.2194 7.34911L42.4562 17.6775L42.3914 32.2194L32.063 42.4562L17.5212 42.3914L7.28436 32.063L7.34913 17.5211L17.6776 7.28433L32.2194 7.34911Z" fill="url(#paint0_radial_9305_16457)" fill-opacity="0.2"/>
<g filter="url(#filter0_bi_9305_16457)">
<path d="M25.0001 13C19.6804 13 15.3525 17.3279 15.3525 22.6475C15.3525 22.7158 15.3689 22.7831 15.4001 22.8437L15.4375 22.9164C15.4447 22.9305 15.4527 22.9441 15.4614 22.9573L24.6388 36.7969C24.6861 36.8728 24.7554 36.9314 24.8369 36.9655C24.8426 36.9679 24.8481 36.9705 24.8539 36.9726C24.8648 36.9766 24.8759 36.9801 24.8871 36.9832C24.8962 36.9858 24.9055 36.988 24.9149 36.9899C24.9243 36.9919 24.9336 36.9939 24.9432 36.9953C24.9605 36.9977 24.9781 36.9992 24.9957 36.9995C24.9978 36.9995 24.9999 37 25.0019 37C25.0022 37 25.0024 37 25.0027 37C25.003 37 25.0033 37 25.0036 37C25.0036 37 25.0037 37 25.0038 37C25.0251 37 25.046 36.9979 25.0667 36.9948C25.07 36.9943 25.0733 36.9936 25.0766 36.993C25.0951 36.9898 25.1133 36.9854 25.1311 36.9798C25.1335 36.979 25.1358 36.9783 25.1383 36.9775C25.2284 36.9476 25.3076 36.889 25.3613 36.8078L34.5764 22.8842C34.6229 22.814 34.6477 22.7317 34.6477 22.6475C34.6476 17.3279 30.3197 13 25.0001 13ZM23.4829 14.4809C23.836 14.1821 24.2006 13.9904 24.5711 13.9067V21.7658C24.0106 21.4289 23.3679 21.2486 22.6954 21.2485C22.0317 21.2485 21.397 21.4244 20.8417 21.7528C20.9422 19.6952 21.3887 17.7923 22.1244 16.3208C22.5216 15.5264 22.9787 14.9074 23.4829 14.4809ZM22.5197 14.2149C22.0939 14.6698 21.7024 15.2466 21.3571 15.9371C20.5613 17.5287 20.0821 19.5768 19.9819 21.7777C19.4168 21.433 18.7667 21.2485 18.0861 21.2485C17.4325 21.2485 16.807 21.4193 16.2578 21.7383C16.6276 18.1558 19.1577 15.2054 22.5197 14.2149ZM16.3356 22.7233C16.83 22.3239 17.4402 22.1064 18.0861 22.1064C18.7948 22.1064 19.4608 22.3675 19.9776 22.8442L19.94 22.8569L23.5534 33.6079L16.3356 22.7233ZM24.5711 33.943L20.8324 22.8191C21.3451 22.3586 21.9995 22.1064 22.6954 22.1064C23.397 22.1064 24.0566 22.3626 24.5711 22.8303V33.943H24.5711ZM25.429 13.9067C25.7995 13.9904 26.164 14.1821 26.5172 14.4809C27.0214 14.9074 27.4785 15.5264 27.8757 16.3208C28.6114 17.7923 29.0581 19.6953 29.1586 21.7529C28.6034 21.4244 27.9685 21.2486 27.3047 21.2485C26.6322 21.2485 25.9894 21.4289 25.429 21.7658V13.9067ZM25.429 22.8303C25.9435 22.3626 26.603 22.1065 27.3047 22.1065C28.0007 22.1065 28.6551 22.3587 29.1678 22.8192L25.429 33.9519V22.8303ZM26.4486 33.6104L30.0602 22.8569L30.0225 22.8443C30.5393 22.3675 31.2053 22.1065 31.914 22.1065C32.557 22.1065 33.1645 22.322 33.6578 22.7179L26.4486 33.6104ZM31.914 21.2485C31.2335 21.2485 30.5833 21.433 30.0182 21.7777C29.918 19.5768 29.4388 17.5286 28.643 15.9371C28.2977 15.2465 27.9061 14.6698 27.4801 14.2148C30.8423 15.2053 33.3725 18.1558 33.7424 21.7383C33.1931 21.4193 32.5676 21.2485 31.914 21.2485Z" fill="white" fill-opacity="0.16"/>
</g>
<defs>
<filter id="filter0_bi_9305_16457" x="-4.64746" y="-7" width="59.2949" height="64" filterUnits="userSpaceOnUse" color-interpolation-filters="sRGB">
<feFlood flood-opacity="0" result="BackgroundImageFix"/>
<feGaussianBlur in="BackgroundImageFix" stdDeviation="10"/>
<feComposite in2="SourceAlpha" operator="in" result="effect1_backgroundBlur_9305_16457"/>
<feBlend mode="normal" in="SourceGraphic" in2="effect1_backgroundBlur_9305_16457" result="shape"/>
<feColorMatrix in="SourceAlpha" type="matrix" values="0 0 0 0 0 0 0 0 0 0 0 0 0 0 0 0 0 0 127 0" result="hardAlpha"/>
<feOffset dx="1.05" dy="1.05"/>
<feGaussianBlur stdDeviation="2"/>
<feComposite in2="hardAlpha" operator="arithmetic" k2="-1" k3="1"/>
<feColorMatrix type="matrix" values="0 0 0 0 1 0 0 0 0 1 0 0 0 0 1 0 0 0 0.65 0"/>
<feBlend mode="normal" in2="shape" result="effect2_innerShadow_9305_16457"/>
</filter>
<radialGradient id="paint0_radial_9305_16457" cx="0" cy="0" r="1" gradientUnits="userSpaceOnUse" gradientTransform="translate(30.7266 10.9081) rotate(112.755) scale(37.4063)">
<stop stop-color="white"/>
<stop offset="1" stop-opacity="0"/>
</radialGradient>
</defs>
</svg>
